<?xml version="1.0" encoding="utf-8"?>
<!-- Generator: Adobe Illustrator 28.3.0, SVG Export Plug-In . SVG Version: 6.00 Build 0)  -->
<svg version="1.1" id="Layer_1" xmlns="http://www.w3.org/2000/svg" xmlns:xlink="http://www.w3.org/1999/xlink" x="0px" y="0px" width="16" height="16"
	 viewBox="0 0 360 362" style="enable-background:new 0 0 360 362;" xml:space="preserve">
<style type="text/css">
	.st0{fill-rule:evenodd;clip-rule:evenodd;fill:#FFF;}
</style>
<path class="st0" d="M307.5,52.6C273.7,18.7,228.7,0,180.8,0C82,0,1.5,80.4,1.5,179.2c0,31.6,8.2,62.4,23.9,89.6L0,361.7l95-24.9
	c26.2,14.3,55.7,21.8,85.7,21.8h0.1c98.8,0,179.2-80.4,179.2-179.2C360,131.5,341.4,86.5,307.5,52.6L307.5,52.6z M180.8,328.4
	L180.8,328.4c-26.8,0-53-7.2-75.9-20.8l-5.4-3.2L43,319.1l15-55l-3.5-5.6c-14.9-23.7-22.8-51.1-22.8-79.3c0-82.1,66.9-149,149.1-149
	c39.8,0,77.2,15.5,105.3,43.7c28.1,28.2,43.6,65.6,43.6,105.4C329.7,261.5,262.9,328.3,180.8,328.4L180.8,328.4z M262.5,216.8
	c-4.5-2.2-26.5-13.1-30.6-14.6c-4.1-1.5-7.1-2.2-10.1,2.2c-3,4.5-11.6,14.6-14.2,17.6c-2.6,3-5.2,3.4-9.7,1.1
	c-4.5-2.2-18.9-7-36-22.2c-13.3-11.9-22.3-26.5-24.9-31c-2.6-4.5-0.3-6.9,2-9.1c2-2,4.5-5.2,6.7-7.8c2.2-2.6,3-4.5,4.5-7.5
	c1.5-3,0.7-5.6-0.4-7.8c-1.1-2.2-10.1-24.3-13.8-33.3c-3.6-8.7-7.3-7.5-10.1-7.7c-2.6-0.1-5.6-0.2-8.6-0.2s-7.8,1.1-11.9,5.6
	c-4.1,4.5-15.7,15.3-15.7,37.4s16,43.3,18.3,46.3c2.2,3,31.6,48.2,76.5,67.6c10.7,4.6,19,7.4,25.5,9.4c10.7,3.4,20.5,2.9,28.2,1.8
	c8.6-1.3,26.5-10.8,30.2-21.3c3.7-10.5,3.7-19.4,2.6-21.3S266.9,219,262.5,216.8L262.5,216.8z"/>
</svg>
