<svg xmlns="http://www.w3.org/2000/svg" xmlns:xlink="http://www.w3.org/1999/xlink" width="264.455" height="214.17" xmlns:v="https://vecta.io/nano"><path d="M245.042 103.17c0 56.978-24.307 87.955-135.467 79.355-42.271-3.273-70.873-22.376-70.873-79.355S84.894 0 141.872 0s103.17 46.191 103.17 103.17z" fill="#a5c4a3"/><path d="M82.054 152.506c2.653 1.267-1.749-7.578 1.15-8.07 5.626-.957 12.884-3.605 12.712-10.878-.283-11.835-23.922-.492-18.954 16.991s24.211 12.333 38.062-5.829 24.275-40.517 13.771-43.378c-10.504-2.867-27.666 24.713-8.792 57.043 0 0-1.743-19.996 9.177-19.387 4.214.235 7.691 3.305 8.883 7.354s1.021 9.766-6.765 13.146c-1.203.524-2.572-.31-2.685-1.615-.358-4.145 1.936-12.605 24.623-16.889 30.768-5.813 33.442-31.939 22.435-31.479-6.813.283-25.949 11.627-21.681 44.063.353 2.706 2.054 5.107 4.562 6.177 5.733 2.449 18.569 1.155 45.849-24.286 3.059-2.851 5.712-6.124 7.787-9.755 2.867-5.017 4.942-11.161-1.144-12.333-10.579-2.027-24.521 7.108-25.05 26.494-.465 17.114 5.61 27.837 18.007 26.692 20.141-1.856 47.528-53.187 16.28-105.266C189.026 9.215 87.766 17.707 63.614 80.997c0 0-17.531 39.726 7.648 85.623 0 0 11.375 2.567 9.439-14.755-.562-5.043 0 0 1.358.647z" fill="#b57243"/><path d="M67.304 66.717s16.691-32.623 61.428-39.255c0 0 13.723 66.589-61.428 39.255z" fill="#4e664d"/><path d="M190.256 32.778s40.405 11.803 46.165 62.974c3.824 33.96-9.236 50.609-22.162 66.814-10.097 12.659-18.483-13.975.524-22.371s23.414-40.678-3.22-43.421c-7.268-.749-46.576-9.963-21.301-64z" fill="#a05f32"/><g fill="#663c05"><path d="M202.209 168.481c-4.225 0-7.819-1.358-10.696-4.059-2.792-2.621-4.797-6.428-5.958-11.263-7.979 5.439-15.916 9.284-22.43 9.284-1.866 0-3.61-.316-5.209-1-2.968-1.268-5.086-4.123-5.525-7.445-.519-3.947-.695-7.562-.604-10.867-3.375.717-7.937 1.904-11.996 3.722.973 4 .915 10.525-7.867 14.333a3.52 3.52 0 0 1-3.198-.209 3.54 3.54 0 0 1-1.717-2.738c-.294-3.38.866-8.589 8.771-13.001-1.385-2.551-3.899-4.262-6.696-4.418-1.695-.091-3.064.412-4.172 1.556-3.546 3.653-3.599 12.851-3.321 16.092a1.61 1.61 0 0 1-1.112 1.669 1.61 1.61 0 0 1-1.872-.722c-2.027-3.471-3.653-6.91-4.936-10.29-8.669 9.942-18.97 15.279-26.997 13.755-3.835-.727-8.899-3.343-11.268-11.675a19.02 19.02 0 0 1-.727-4.61c-3.829-.412-7.466-.973-10.926-1.653 2.038 6.76 4.915 13.862 8.899 21.125a1.6 1.6 0 1 1-2.813 1.54c-4.434-8.076-7.535-15.964-9.653-23.425-22.002-5.049-36.217-15.098-44.721-23.43C4.073 109.588.25 99.218.094 98.779a1.61 1.61 0 0 1 .963-2.054 1.61 1.61 0 0 1 2.054.963c.07.182 3.845 10.274 14.723 20.895 7.963 7.771 21.146 17.098 41.41 22.077-3.31-13.317-3.562-25.104-2.861-33.971 1.214-15.419 5.38-25.275 5.733-26.083 5.942-15.547 16.948-28.848 31.832-38.463 13.702-8.851 30.11-14.338 47.454-15.868 16.344-1.444 32.318.754 46.197 6.354 14.846 5.99 26.617 15.691 34.041 28.061 9.156 15.258 13.985 31.366 14.36 47.876.31 13.648-2.647 27.323-8.311 38.506-6.279 12.386-15.301 20.547-23.548 21.312a21.79 21.79 0 0 1-1.936.091zm-13.819-17.317c.957 4.808 2.749 8.509 5.321 10.915 2.61 2.444 6.017 3.492 10.14 3.113 7.049-.652 15.285-8.332 20.981-19.563 5.434-10.718 8.263-23.852 7.969-36.982-.358-15.948-5.038-31.522-13.9-46.298-7.059-11.766-18.296-21.013-32.49-26.735-13.413-5.407-28.874-7.53-44.715-6.129-16.825 1.481-32.73 6.797-45.993 15.365-14.317 9.247-24.895 22.023-30.591 36.945-.011.027-.021.048-.032.075-.043.096-4.316 9.963-5.498 25.216-.69 8.91-.385 20.879 3.193 34.388 3.792.802 7.814 1.455 12.081 1.92.636-4.455 2.909-8.61 6.637-11.857 4.193-3.653 9.236-5.118 12.541-3.663 2.177.957 3.412 3.043 3.476 5.872.07 2.995-.936 5.557-2.995 7.621-4.658 4.669-13.466 5.337-16.622 5.428a16.32 16.32 0 0 0 .604 3.54c1.519 5.348 4.557 8.6 8.776 9.397 7.166 1.364 17.103-4.278 25.179-14.135-5.102-16.403-2-30.997 4.551-39.544 3.722-4.851 8.284-7.108 12.204-6.038 2.433.663 4.139 2.257 4.936 4.61 2.899 8.557-6.883 26.901-17.857 41.293l-.273.353c.669 1.92 1.46 3.893 2.401 5.899.326-4.081 1.342-9.086 4.188-12.017 1.77-1.824 4.011-2.674 6.653-2.53 3.958.219 7.493 2.621 9.391 6.193 3.407-1.513 7.765-2.883 13.317-3.99.947-11.017 4.947-18.248 8.712-22.719 5.027-5.979 11.113-8.814 14.916-8.969 4.032-.182 6.99 2.615 7.503 7.097 1 8.723-7.092 22.724-28.083 27.259-.134 3.337.021 7.027.556 11.097.289 2.203 1.669 4.086 3.599 4.91 3.487 1.492 10.964 1.637 25.724-8.739-.439-2.936-.61-6.182-.513-9.701.273-9.91 3.984-18.226 10.456-23.43 4.958-3.984 10.969-5.658 16.504-4.599 2.321.444 3.899 1.546 4.696 3.278 1.203 2.615.374 6.455-2.46 11.423-2.102 3.679-4.819 7.086-8.086 10.129-5.241 4.888-11.135 9.969-17.103 14.306zm-51.55-2.808c-4.043 2.342-6.99 5.482-6.632 9.611.011.144.107.225.166.257.064.037.166.07.278.021 4.915-2.134 6.99-5.455 6.182-9.889zm71.269-33.425c-3.829 0-7.883 1.481-11.252 4.193-5.728 4.605-9.017 12.065-9.258 21.018-.075 2.679.016 5.172.257 7.466 4.508-3.38 9.632-7.674 15.451-13.097 3.027-2.824 5.546-5.979 7.487-9.375 2.198-3.845 3.048-6.942 2.332-8.493-.128-.273-.508-1.107-2.385-1.471-.856-.166-1.738-.246-2.631-.246zM91.167 130.515c-1.995 0-4.819 1.043-7.562 3.433-1.316 1.15-4.68 4.514-5.53 9.616 2.979-.112 10.488-.77 14.183-4.476 1.433-1.439 2.107-3.166 2.054-5.279-.059-2.348-1.193-2.851-1.567-3.011-.428-.187-.963-.289-1.578-.289zm36.084-27.553c-2.391 0-5.236 1.834-7.691 5.043-4.428 5.771-9.054 18.323-4.696 34.479 11.504-15.467 18.296-30.789 16.253-36.832-.455-1.348-1.326-2.161-2.738-2.546a4.3 4.3 0 0 0-1.118-.144zm48.7 8.37h-.214c-2.503.107-7.926 2.278-12.595 7.83-3.332 3.963-6.862 10.316-7.878 19.975 10.177-2.385 16.071-6.936 19.28-10.455 4.503-4.947 5.733-10.006 5.375-13.092-.15-1.3-.834-4.262-3.968-4.262z"/><path d="M221.558 100.956c-6.594 0-13.108-1.011-19.307-3.027-12.322-4-20.371-10.883-23.917-20.451-7.268-19.601 6.899-43.239 7.503-44.234.46-.754 1.449-1 2.203-.535a1.6 1.6 0 0 1 .535 2.203c-.139.23-13.964 23.328-7.236 41.464 3.187 8.594 10.557 14.82 21.895 18.504 10.365 3.364 21.676 3.776 32.693 1.187 7.969-1.872 19.018-4.664 26.377-7.332.834-.299 1.754.128 2.054.963s-.128 1.754-.963 2.054c-7.503 2.722-18.681 5.546-26.735 7.439-5.017 1.177-10.086 1.765-15.114 1.765zm-46.485 30.206c-3.524 0-8.011-.877-13.45-3.605-12.889-6.455-18.472-1.947-18.702-1.754-.674.567-1.679.492-2.257-.171a1.59 1.59 0 0 1 .139-2.241c.289-.257 7.263-6.22 22.253 1.294 12.937 6.482 19.28 1.369 19.542 1.15a1.61 1.61 0 0 1 2.257.182c.572.669.503 1.669-.16 2.246-.203.176-3.433 2.888-9.627 2.888z"/><circle cx="204.45" cy="54.631" r="2.102"/></g><g fill="#999"><path d="M84.643 211.684h-2.464l-1.743-3.248c-.121-.242-.3-.421-.542-.542a1.66 1.66 0 0 0-.78-.179H78.03v3.97h-2.222v-10.22h4.691c1.201 0 2.106.242 2.706.78s.901 1.263.901 2.285c.021.7-.215 1.384-.663 1.922-.421.542-1.022.842-1.806 1.022.542.121.963.542 1.322 1.142zm-3.065-6.013c.3-.242.421-.6.421-1.084s-.121-.842-.421-1.084-.78-.363-1.384-.363H78.03v2.827h2.164c.663.058 1.084-.058 1.384-.3zm9.794-.538c.479.479.78 1.263.78 2.343v4.207h-2.043V210.6c-.121.363-.363.663-.721.842-.37.197-.782.3-1.201.3a3.27 3.27 0 0 1-1.322-.3c-.363-.179-.721-.479-.901-.78a1.97 1.97 0 0 1-.363-1.142c0-.542.121-.901.421-1.201a2.31 2.31 0 0 1 1.263-.663 12.59 12.59 0 0 1 2.406-.179h.363v-.242c0-.421-.121-.721-.3-.901s-.479-.242-.963-.242c-.387.005-.772.065-1.142.179-.425.119-.83.301-1.201.542l-.6-1.443c.463-.282.971-.485 1.501-.6a5.63 5.63 0 0 1 1.622-.242c1.142-.121 1.922.121 2.406.6zm-1.743 4.691c.242-.3.363-.663.363-1.084v-.242h-.242c-.78 0-1.322.058-1.622.179s-.479.363-.479.663c0 .242.058.479.242.663s.421.242.663.242c.479.058.842-.121 1.084-.421zm4.207-8.66h2.343v2.043h-2.343zm.121 10.52v-7.092h2.164v7.092zm10.341-6.55c.421.479.6 1.263.6 2.222v4.328h-2.164v-4.207c0-.479-.058-.842-.242-1.084s-.479-.363-.842-.363c-.479 0-.842.121-1.084.421-.3.3-.421.663-.421 1.142v4.086h-2.164v-7.088h2.106v1.022a3.36 3.36 0 0 1 .963-.901 3.27 3.27 0 0 1 1.322-.3c.842 0 1.501.242 1.922.721zm12.926 0c.421.479.6 1.263.6 2.222v4.328h-2.164v-4.207c0-.479-.058-.842-.242-1.022s-.421-.3-.78-.3c-.421 0-.721.121-.963.421s-.363.721-.363 1.201v3.907h-2.106v-4.207c0-.479-.058-.842-.242-1.022s-.421-.3-.78-.3c-.421 0-.721.121-.963.421s-.363.721-.363 1.201v3.907h-2.164v-7.092h2.106v.963c.242-.363.542-.663.901-.842s.78-.3 1.263-.3c1.022 0 1.743.421 2.106 1.322.224-.405.558-.739.963-.963.419-.246.898-.372 1.384-.363.842 0 1.443.242 1.806.721zm7.935 0c.479.479.78 1.263.78 2.343v4.207h-2.106V210.6c-.121.363-.363.663-.721.842-.37.197-.782.3-1.201.3a3.27 3.27 0 0 1-1.322-.3c-.363-.179-.721-.479-.901-.78a1.97 1.97 0 0 1-.363-1.142c0-.542.121-.901.421-1.201a2.31 2.31 0 0 1 1.263-.663 12.59 12.59 0 0 1 2.406-.179h.363v-.242c0-.421-.121-.721-.3-.901s-.479-.242-.963-.242c-.387.005-.772.065-1.142.179-.425.119-.83.301-1.201.542l-.6-1.443c.463-.282.971-.485 1.501-.6a5.63 5.63 0 0 1 1.622-.242c1.142-.121 1.922.121 2.464.6zm-1.743 4.691c.242-.3.363-.663.363-1.084v-.242h-.242c-.78 0-1.322.058-1.622.179s-.479.363-.479.663c0 .242.058.479.242.663s.421.242.663.242c.479.058.842-.121 1.084-.421z"/><use xlink:href="#B"/><use xlink:href="#B" x="5.591"/><path d="M145.414 208.561h-4.628c.058.542.242.963.542 1.263a1.97 1.97 0 0 0 1.263.363c.369-.001.735-.061 1.084-.179s.678-.304.963-.542l.6 1.443a6.23 6.23 0 0 1-1.263.663 4.39 4.39 0 0 1-1.501.242c-1.201 0-2.106-.3-2.827-.963-.663-.663-1.022-1.564-1.022-2.706-.024-.666.121-1.327.421-1.922.289-.55.727-1.008 1.263-1.322.55-.313 1.172-.478 1.806-.479.963 0 1.806.3 2.343.963s.901 1.501.901 2.643v.542zm-4.207-2.285c-.242.242-.421.663-.479 1.142h2.764a1.97 1.97 0 0 0-.363-1.142c-.242-.242-.542-.363-.963-.363-.363 0-.721.121-.963.363zm10.762-.063l-1.201.121c-.6.058-1.022.242-1.263.542s-.363.663-.363 1.142v3.665h-2.164v-7.092h2.106v1.201c.363-.842 1.084-1.263 2.222-1.322l.663-.058zm4.978 5.529v-9.512h5.892v.927h-4.798v3.284h4.543v.927h-4.543v4.377z"/><use xlink:href="#C"/><path d="M177.565 205.178v6.564h-1.093v-1.093c-.17.421-.506.672-.842.927-.336.17-.757.336-1.263.336a2.42 2.42 0 0 1-1.77-.672c-.421-.421-.591-1.093-.591-1.935v-4.041h1.093v4.041c0 .591.085 1.008.336 1.263s.591.421 1.093.421a1.57 1.57 0 0 0 1.349-.591 2.19 2.19 0 0 0 .506-1.514v-3.705zm7.912 2.437v4.126h-1.093V207.7c0-.591-.085-1.093-.336-1.349a1.52 1.52 0 0 0-1.178-.421c-.591 0-1.093.17-1.429.591-.336.336-.506.842-.506 1.514v3.786h-1.093v-6.564h1.093v1.008c.22-.387.54-.708.927-.927.422-.201.881-.315 1.349-.336 1.429 0 2.272.842 2.272 2.608zm7.997-5.385v9.512h-1.093v-1.263c-.17.421-.506.757-.842.927-.408.239-.876.356-1.349.336a2.91 2.91 0 0 1-1.514-.421c-.421-.251-.757-.672-1.008-1.178s-.336-1.093-.336-1.77.085-1.263.336-1.77.591-.927 1.008-1.178a2.91 2.91 0 0 1 1.514-.421c.472-.02.941.097 1.349.336a1.79 1.79 0 0 1 .842.927v-4.041zm-1.599 7.997c.336-.421.506-1.008.506-1.85s-.17-1.429-.506-1.85-.842-.672-1.514-.672a1.97 1.97 0 0 0-1.514.672c-.336.421-.506 1.008-.506 1.85 0 .757.17 1.429.506 1.85s.842.672 1.514.672 1.178-.17 1.514-.672zm8.333-4.633c.421.421.591 1.093.591 1.935v4.126h-1.093v-1.093a2.06 2.06 0 0 1-.757.927c-.336.17-.757.336-1.178.336a2.69 2.69 0 0 1-1.178-.251c-.336-.17-.672-.421-.842-.672-.17-.336-.336-.672-.336-1.008 0-.506.085-.842.336-1.178.251-.251.672-.506 1.263-.591a15.95 15.95 0 0 1 2.357-.17h.336v-.421c0-.591-.085-.927-.336-1.178s-.591-.336-1.093-.336c-.757 0-1.514.251-2.272.672l-.336-.757a4.48 4.48 0 0 1 1.263-.591c.506-.17.927-.251 1.429-.251.842-.085 1.514.085 1.85.506zm-.927 4.798c.336-.336.506-.842.506-1.429v-.421h-.251l-1.77.085c-.421.085-.672.17-.842.336a.94.94 0 0 0-.251.672c0 .336.17.672.421.842.251.251.591.336.927.336.506.17.927-.085 1.263-.421zm7.24.508l-.085.842c-.17 0-.421.085-.672.085-.757 0-1.349-.17-1.77-.591s-.591-1.008-.591-1.685v-3.45h-1.263v-.842h1.263v-2.021h1.093v2.021h1.85v.842h-1.85v3.365c0 1.008.506 1.514 1.429 1.514.251-.085.421-.085.591-.085zm1.263-8.584h1.349v1.263h-1.349zm.085 9.427v-6.564h1.093v6.564z"/><use xlink:href="#C" x="46.882"/><path d="M224.532 207.616v4.126h-1.093v-4.041c0-.591-.085-1.093-.336-1.349-.314-.303-.743-.456-1.178-.421-.591 0-1.093.17-1.429.591-.336.336-.506.842-.506 1.514v3.786h-1.093v-6.564h1.093v1.008c.22-.387.54-.708.927-.927.422-.201.881-.315 1.349-.336 1.514 0 2.272.842 2.272 2.608zm-164.814-2.657c.576 0 1.086.14 1.528.421s.786.678 1.03 1.192c.254.514.381 1.114.381 1.801s-.127 1.296-.381 1.828c-.245.523-.593.929-1.044 1.219a2.7 2.7 0 0 1-1.514.435c-.478 0-.907-.105-1.286-.314-.37-.209-.654-.497-.851-.865v1.071h-1.662v-9.548h1.694v3.884c.197-.361.481-.636.851-.824.37-.197.79-.296 1.259-.296zm-.448 5.574c.532 0 .947-.19 1.246-.569s.448-.911.448-1.595c0-.678-.149-1.196-.448-1.555-.29-.361-.705-.542-1.246-.542s-.96.185-1.259.556c-.29.361-.435.884-.435 1.568s.145 1.214.435 1.582c.299.37.718.556 1.259.556zm9.319-5.399h1.662l-3.979 9.037h-1.707l1.205-2.693-2.76-6.344h1.788l1.868 4.668z"/></g><defs ><path id="B" d="M132.309 210.125l-.121 1.564c-.3.058-.542.058-.842.058-1.084 0-1.864-.242-2.343-.721s-.721-1.201-.721-2.164v-2.706h-1.322v-1.622h1.322v-2.106h2.164v2.106h1.806v1.622h-1.806v2.706c0 .842.421 1.263 1.201 1.263.179.058.421.058.663 0z"/><path id="C" d="M165.445 211.406c-.506-.251-.842-.672-1.093-1.178s-.421-1.093-.421-1.77.17-1.263.421-1.77.591-.927 1.093-1.178 1.008-.421 1.599-.421 1.178.17 1.685.421.842.672 1.093 1.178.421 1.093.421 1.77-.17 1.263-.421 1.77-.591.927-1.093 1.178-1.008.421-1.685.421c-.561.001-1.112-.144-1.599-.421zm3.114-1.093c.336-.421.506-1.008.506-1.85 0-.757-.17-1.429-.506-1.85s-.842-.672-1.514-.672a1.97 1.97 0 0 0-1.514.672c-.421.421-.506 1.093-.506 1.85 0 .842.17 1.429.506 1.85s.842.672 1.514.672 1.178-.251 1.514-.672z"/></defs></svg>